<svg width="187" height="64" viewBox="0 0 187 64" fill="none" xmlns="http://www.w3.org/2000/svg">
<path d="M64 29.6207C64 31.3318 64 33.043 64 34.7541C63.7603 36.4237 63.5819 38.1024 63.1583 39.7412C60.7756 48.9601 55.4171 55.8608 47.1172 60.4847C46.6234 60.7593 46.2665 60.7358 45.8177 60.4196C44.4245 59.4312 43.0042 58.4844 41.6002 57.5123C40.1114 56.4805 38.6407 55.4235 36.9825 54.661C35.4361 53.9509 33.9004 53.837 32.3612 54.6483C31.5141 55.0946 30.6598 55.5301 29.8379 56.0216C26.8189 57.8321 23.9135 59.8215 20.9612 61.7369C20.5701 61.9898 20.2457 62.0495 19.8113 61.8453C18.7569 61.3484 17.6665 60.9274 16.6698 60.3166C16.3057 60.0944 15.6551 59.9878 15.6641 59.5993C15.6713 59.218 16.3147 59.1006 16.6932 58.9018C22.6897 55.7505 28.5204 52.321 34.0573 48.409C37.3195 46.1052 40.3349 43.5069 42.6852 40.2327C44.5002 37.703 45.5437 34.9348 45.1094 31.7348C44.5813 27.8445 40.4232 24.8432 36.5716 25.5822C34.351 26.0086 32.4946 27.1145 30.831 28.5799C28.9547 30.2332 27.3326 32.1504 25.4654 33.8163C22.304 36.6406 19.0507 39.3347 15.2081 41.2048C13.3156 42.1264 11.3853 42.9467 9.363 43.552C8.39512 43.8411 7.9968 44.5458 8.26175 45.3373C8.50327 46.06 9.21881 46.3654 10.1182 46.0998C13.5319 45.0897 16.7527 43.6424 19.7392 41.7035C23.9388 38.9787 27.6318 35.6504 31.0725 32.0275C32.3432 30.6886 33.7563 29.5466 35.4198 28.71C38.875 26.9717 42.9862 29.6008 42.541 33.6989C42.3752 35.2239 41.8399 36.6116 41.0234 37.8946C39.1003 40.9175 36.4922 43.2864 33.6427 45.3734C27.2587 50.0479 20.4458 54.0195 13.3895 57.581C12.9461 57.805 12.6451 57.7382 12.272 57.44C10.6589 56.1463 9.14852 54.7459 7.80936 53.1648C1.79665 46.0654 -0.735674 37.853 0.183534 28.6124C0.75128 22.9098 2.78075 17.7076 6.22688 13.1253C12.2973 5.05196 20.4205 0.700894 30.4741 0.0612445C34.7133 -0.207987 38.8732 0.409982 42.8528 1.92418C52.9064 5.74582 59.5445 12.8344 62.7762 23.1158C63.4413 25.2353 63.7621 27.4216 64 29.6207ZM32.4874 13.2482C29.1548 13.3096 26.2422 14.0613 23.5062 15.4996C20.042 17.321 17.2339 19.9265 14.6457 22.823C12.6577 25.0473 11.2681 27.8119 8.63304 29.4598C8.10314 29.7923 8.09232 30.5819 8.43117 31.106C8.77362 31.6336 9.42067 31.8468 10.0227 31.6047C10.2714 31.5053 10.5093 31.368 10.7346 31.218C11.8737 30.4591 12.8199 29.5014 13.6382 28.4064C16.0155 25.2244 18.5316 22.1707 21.7489 19.7874C25.359 17.1113 29.317 15.5158 33.9077 16.0579C37.7341 16.5096 40.89 18.266 43.4566 21.1155C45.8574 23.7825 47.4146 26.9284 48.5213 30.3073C49.1953 32.3654 49.7324 34.4704 50.3723 36.5412C50.612 37.3163 50.9454 38.0698 51.5294 38.6661C52.0647 39.2136 52.8614 39.2624 53.3895 38.8107C53.9193 38.3553 54.0113 37.6307 53.5625 37.0074C53.1642 36.4544 52.9136 35.8437 52.7298 35.2004C52.418 34.1181 52.1224 33.0321 51.8268 31.9462C50.5471 27.2428 48.6384 22.8664 45.3293 19.1983C41.8183 15.3153 37.4367 13.4036 32.4874 13.2482ZM10.4552 53.6437C10.6931 53.6509 11.005 53.5371 11.3186 53.4214C15.9038 51.7338 20.2781 49.6124 24.4128 47.0032C29.6306 43.711 34.3078 39.8045 37.9936 34.7957C38.154 34.5789 38.3199 34.3584 38.437 34.1163C38.8588 33.2435 38.2387 32.2931 37.2691 32.2768C36.6148 32.266 36.2471 32.6852 35.9101 33.1424C34.3456 35.2619 32.5883 37.2097 30.6364 38.9751C24.8598 44.2007 18.1928 47.9338 10.9581 50.7038C10.5129 50.8737 10.0407 50.9875 9.63695 51.2567C9.11246 51.6073 8.90159 52.1945 9.10886 52.7908C9.31073 53.3726 9.74149 53.6473 10.4552 53.6437ZM10.1002 38.7257C10.3867 38.7438 10.6841 38.639 10.9689 38.5143C14.7034 36.8935 18.1622 34.8662 20.9468 31.8161C22.5329 30.0796 23.9586 28.1968 25.7123 26.6103C28.2753 24.2921 31.1122 22.514 34.5908 21.9593C34.8827 21.9123 35.1585 21.8256 35.4 21.6521C35.8524 21.3251 36.0182 20.6872 35.8019 20.1343C35.6001 19.6194 35.0414 19.2507 34.5277 19.3176C32.5288 19.5742 30.6327 20.1669 28.8502 21.1137C25.8078 22.7309 23.2502 24.9444 21.109 27.6204C18.474 30.9108 15.3649 33.5706 11.5312 35.3613C10.8518 35.6793 10.147 35.934 9.47835 36.2647C8.87996 36.5592 8.59699 37.1989 8.752 37.7735C8.9052 38.3445 9.43869 38.7312 10.1002 38.7257ZM50.1001 56.8997C50.6949 56.8943 51.0572 56.6576 51.2735 56.1987C51.67 55.3566 51.3348 54.6284 50.3435 54.2363C46.9712 52.9046 44.1361 50.9694 42.5807 47.5164C42.2148 46.7051 41.4235 46.472 40.7657 46.8352C40.0826 47.2128 39.9023 47.9157 40.2718 48.718C41.9552 52.3644 44.7831 54.7893 48.4041 56.3577C48.9719 56.6034 49.545 56.8781 50.1001 56.8997ZM46.9099 40.6591C45.8916 40.6483 45.268 41.4668 45.4789 42.5239C45.8393 44.3272 46.7297 45.8125 48.1229 47.0032C49.2747 47.988 50.5778 48.7162 51.9854 49.2456C52.8019 49.5528 53.4796 49.2655 53.7535 48.5753C54.0419 47.8489 53.7355 47.1695 52.9515 46.8027C52.4991 46.5913 52.0395 46.3961 51.5925 46.1775C50.3975 45.592 49.3395 44.8422 48.6763 43.6388C48.3104 42.9738 48.1464 42.242 47.9733 41.512C47.84 40.9591 47.4975 40.6537 46.9099 40.6591Z" fill="#091C2B"/>
<path d="M29.2357 63.9983C27.6785 63.7756 26.1105 63.6125 24.5839 63.2144C24.3877 63.1636 24.0942 63.1846 24.0474 62.9795C23.9988 62.7603 24.2886 62.6849 24.4525 62.5797C27.1618 60.8524 29.8621 59.1147 32.6561 57.5154C34.0891 56.6948 35.3672 56.6667 36.7822 57.5119C38.9443 58.8025 40.9839 60.265 43.074 61.6573C43.4935 61.9361 43.3944 62.0904 42.9768 62.2395C41.0595 62.9181 39.0937 63.4073 37.0775 63.7089C36.838 63.744 36.6148 63.7352 36.415 63.6195C34.3033 62.392 32.2961 62.6831 30.3572 64C29.9846 63.9983 29.6101 63.9983 29.2357 63.9983Z" fill="#B2DCBC"/>
<path d="M82.4 17.56C82.4 17.3467 82.5067 17.24 82.72 17.24H85.568C85.8453 17.24 86.0267 17.3467 86.112 17.56L92.096 30.968H92.224L98.112 17.56C98.1973 17.3467 98.3787 17.24 98.656 17.24H101.472C101.685 17.24 101.792 17.3467 101.792 17.56V38.68C101.792 38.8933 101.685 39 101.472 39H98.688C98.4747 39 98.368 38.8933 98.368 38.68V25.368H98.24L93.632 35.608C93.504 35.8853 93.3013 36.024 93.024 36.024H91.168C90.8907 36.024 90.688 35.8853 90.56 35.608L85.952 25.368H85.824V38.68C85.824 38.8933 85.7173 39 85.504 39H82.72C82.5067 39 82.4 38.8933 82.4 38.68V17.56ZM106.844 20.664C106.63 20.664 106.524 20.5573 106.524 20.344V17.56C106.524 17.3467 106.63 17.24 106.844 17.24H109.788C110.001 17.24 110.108 17.3467 110.108 17.56V20.344C110.108 20.5573 110.001 20.664 109.788 20.664H106.844ZM106.844 39C106.63 39 106.524 38.8933 106.524 38.68V23.896C106.524 23.6827 106.63 23.576 106.844 23.576H109.788C110.001 23.576 110.108 23.6827 110.108 23.896V38.68C110.108 38.8933 110.001 39 109.788 39H106.844ZM124.534 39C124.32 39 124.214 38.8933 124.214 38.68V29.784C124.214 28.7813 123.968 27.9707 123.478 27.352C122.987 26.7333 122.262 26.424 121.302 26.424C120.363 26.424 119.638 26.7333 119.126 27.352C118.614 27.9707 118.358 28.7813 118.358 29.784V38.68C118.358 38.8933 118.251 39 118.038 39H115.094C114.88 39 114.774 38.8933 114.774 38.68V23.896C114.774 23.6827 114.88 23.576 115.094 23.576H118.038C118.251 23.576 118.358 23.6827 118.358 23.896V25.016H118.39C118.731 24.5253 119.232 24.1093 119.894 23.768C120.576 23.4053 121.43 23.224 122.454 23.224C123.286 23.224 124.022 23.3733 124.662 23.672C125.323 23.9493 125.888 24.344 126.358 24.856C126.827 25.368 127.179 25.976 127.414 26.68C127.67 27.3627 127.798 28.12 127.798 28.952V38.68C127.798 38.8933 127.691 39 127.478 39H124.534ZM141.777 39C141.563 39 141.457 38.8933 141.457 38.68V37.56H141.425C140.998 38.0933 140.465 38.5307 139.825 38.872C139.206 39.192 138.406 39.352 137.425 39.352C136.593 39.352 135.846 39.2133 135.185 38.936C134.545 38.6373 133.99 38.232 133.521 37.72C133.073 37.208 132.721 36.6107 132.465 35.928C132.23 35.224 132.113 34.456 132.113 33.624V23.896C132.113 23.6827 132.219 23.576 132.433 23.576H135.377C135.59 23.576 135.697 23.6827 135.697 23.896V32.792C135.697 33.7947 135.931 34.6053 136.401 35.224C136.87 35.8427 137.595 36.152 138.577 36.152C139.494 36.152 140.198 35.8427 140.689 35.224C141.201 34.6053 141.457 33.8053 141.457 32.824V23.896C141.457 23.6827 141.563 23.576 141.777 23.576H144.721C144.934 23.576 145.041 23.6827 145.041 23.896V38.68C145.041 38.8933 144.934 39 144.721 39H141.777ZM154.223 39.192C152.666 39.192 151.556 38.8187 150.895 38.072C150.255 37.3253 149.935 36.1947 149.935 34.68V26.552C149.935 26.424 149.871 26.36 149.743 26.36H148.719C148.506 26.36 148.399 26.2533 148.399 26.04V23.896C148.399 23.6827 148.506 23.576 148.719 23.576H149.743C149.871 23.576 149.935 23.512 149.935 23.384V19.16C149.935 18.9467 150.042 18.84 150.255 18.84H153.199C153.412 18.84 153.519 18.9467 153.519 19.16V23.384C153.519 23.512 153.583 23.576 153.711 23.576H155.759C155.972 23.576 156.079 23.6827 156.079 23.896V26.04C156.079 26.2533 155.972 26.36 155.759 26.36H153.711C153.583 26.36 153.519 26.424 153.519 26.552V34.552C153.519 35.1067 153.636 35.4907 153.871 35.704C154.106 35.896 154.468 35.992 154.959 35.992H155.759C155.972 35.992 156.079 36.0987 156.079 36.312V38.872C156.079 39.0853 155.972 39.192 155.759 39.192H154.223ZM164.504 39.192C162.947 39.192 161.838 38.8187 161.176 38.072C160.536 37.3253 160.216 36.1947 160.216 34.68V26.552C160.216 26.424 160.152 26.36 160.024 26.36H159C158.787 26.36 158.68 26.2533 158.68 26.04V23.896C158.68 23.6827 158.787 23.576 159 23.576H160.024C160.152 23.576 160.216 23.512 160.216 23.384V19.16C160.216 18.9467 160.323 18.84 160.536 18.84H163.48C163.694 18.84 163.8 18.9467 163.8 19.16V23.384C163.8 23.512 163.864 23.576 163.992 23.576H166.04C166.254 23.576 166.36 23.6827 166.36 23.896V26.04C166.36 26.2533 166.254 26.36 166.04 26.36H163.992C163.864 26.36 163.8 26.424 163.8 26.552V34.552C163.8 35.1067 163.918 35.4907 164.152 35.704C164.387 35.896 164.75 35.992 165.24 35.992H166.04C166.254 35.992 166.36 36.0987 166.36 36.312V38.872C166.36 39.0853 166.254 39.192 166.04 39.192H164.504ZM176.322 39.352C174.743 39.352 173.388 38.9787 172.258 38.232C171.148 37.4853 170.38 36.44 169.954 35.096C169.783 34.5413 169.655 33.9867 169.57 33.432C169.484 32.856 169.442 32.1413 169.442 31.288C169.442 30.4347 169.484 29.7307 169.57 29.176C169.655 28.6 169.783 28.0347 169.954 27.48C170.38 26.136 171.148 25.0907 172.258 24.344C173.388 23.5973 174.743 23.224 176.322 23.224C177.879 23.224 179.212 23.5973 180.322 24.344C181.452 25.0907 182.231 26.136 182.658 27.48C182.828 28.0347 182.956 28.6 183.042 29.176C183.127 29.7307 183.17 30.4347 183.17 31.288C183.17 32.1413 183.127 32.856 183.042 33.432C182.956 33.9867 182.828 34.5413 182.658 35.096C182.231 36.44 181.452 37.4853 180.322 38.232C179.212 38.9787 177.879 39.352 176.322 39.352ZM176.322 36.152C177.047 36.152 177.644 35.9813 178.114 35.64C178.604 35.2773 178.967 34.776 179.202 34.136C179.33 33.7307 179.415 33.3253 179.458 32.92C179.5 32.4933 179.522 31.9493 179.522 31.288C179.522 30.6267 179.5 30.0933 179.458 29.688C179.415 29.2827 179.33 28.8667 179.202 28.44C178.967 27.8 178.604 27.3093 178.114 26.968C177.644 26.6053 177.047 26.424 176.322 26.424C175.596 26.424 174.988 26.6053 174.498 26.968C174.007 27.3093 173.644 27.8 173.41 28.44C173.282 28.8667 173.196 29.2827 173.154 29.688C173.111 30.0933 173.09 30.6267 173.09 31.288C173.09 31.9493 173.111 32.4933 173.154 32.92C173.196 33.3253 173.282 33.7307 173.41 34.136C173.644 34.776 174.007 35.2773 174.498 35.64C174.988 35.9813 175.596 36.152 176.322 36.152Z" fill="#B2DCBC"/>
<path d="M81.2 47.28C81.2 47.1733 81.2533 47.12 81.36 47.12H82.928C83.0347 47.12 83.088 47.1733 83.088 47.28V51.568C83.088 51.632 83.12 51.664 83.184 51.664H87.328C87.392 51.664 87.424 51.632 87.424 51.568V47.28C87.424 47.1733 87.4773 47.12 87.584 47.12H89.152C89.2587 47.12 89.312 47.1733 89.312 47.28V57.84C89.312 57.9467 89.2587 58 89.152 58H87.584C87.4773 58 87.424 57.9467 87.424 57.84V53.456C87.424 53.392 87.392 53.36 87.328 53.36H83.184C83.12 53.36 83.088 53.392 83.088 53.456V57.84C83.088 57.9467 83.0347 58 82.928 58H81.36C81.2533 58 81.2 57.9467 81.2 57.84V47.28ZM97.8916 58C97.7743 58 97.6943 57.9467 97.6516 57.84L95.5716 53.6H93.6996C93.6356 53.6 93.6036 53.632 93.6036 53.696V57.84C93.6036 57.9467 93.5503 58 93.4436 58H91.8756C91.769 58 91.7156 57.9467 91.7156 57.84V47.28C91.7156 47.1733 91.769 47.12 91.8756 47.12H96.0836C96.585 47.12 97.0436 47.2 97.4596 47.36C97.8863 47.52 98.2543 47.744 98.5636 48.032C98.873 48.3093 99.113 48.6507 99.2836 49.056C99.465 49.4507 99.5556 49.888 99.5556 50.368C99.5556 51.0827 99.369 51.7013 98.9956 52.224C98.6223 52.7467 98.121 53.1253 97.4916 53.36L99.7796 57.792C99.8116 57.8453 99.8116 57.8933 99.7796 57.936C99.7583 57.9787 99.721 58 99.6676 58H97.8916ZM96.0196 51.904C96.521 51.904 96.921 51.7653 97.2196 51.488C97.529 51.2107 97.6836 50.8373 97.6836 50.368C97.6836 49.888 97.529 49.5093 97.2196 49.232C96.921 48.9547 96.521 48.816 96.0196 48.816H93.6996C93.6356 48.816 93.6036 48.848 93.6036 48.912V51.808C93.6036 51.872 93.6356 51.904 93.6996 51.904H96.0196ZM105.403 47.28C105.403 47.1733 105.456 47.12 105.563 47.12H106.987C107.126 47.12 107.216 47.1733 107.259 47.28L110.251 53.984H110.315L113.259 47.28C113.302 47.1733 113.392 47.12 113.531 47.12H114.939C115.046 47.12 115.099 47.1733 115.099 47.28V57.84C115.099 57.9467 115.046 58 114.939 58H113.547C113.44 58 113.387 57.9467 113.387 57.84V51.184H113.323L111.019 56.304C110.955 56.4427 110.854 56.512 110.715 56.512H109.787C109.648 56.512 109.547 56.4427 109.483 56.304L107.179 51.184H107.115V57.84C107.115 57.9467 107.062 58 106.955 58H105.563C105.456 58 105.403 57.9467 105.403 57.84V47.28ZM122.057 58C121.95 58 121.897 57.9467 121.897 57.84V57.28H121.881C121.7 57.5467 121.428 57.7653 121.065 57.936C120.702 58.096 120.249 58.176 119.705 58.176C119.353 58.176 119.017 58.128 118.697 58.032C118.388 57.936 118.116 57.792 117.881 57.6C117.646 57.408 117.46 57.168 117.321 56.88C117.182 56.5813 117.113 56.2293 117.113 55.824C117.113 54.9813 117.385 54.3627 117.929 53.968C118.484 53.5733 119.241 53.376 120.201 53.376H121.769C121.833 53.376 121.865 53.344 121.865 53.28V52.912C121.865 52.464 121.742 52.1387 121.497 51.936C121.252 51.7333 120.804 51.632 120.153 51.632C119.716 51.632 119.358 51.6853 119.081 51.792C118.804 51.888 118.574 52.0107 118.393 52.16C118.297 52.2347 118.222 52.224 118.169 52.128L117.577 51.072C117.524 50.9867 117.534 50.9173 117.609 50.864C117.918 50.64 118.292 50.4587 118.729 50.32C119.166 50.1813 119.705 50.112 120.345 50.112C121.518 50.112 122.345 50.3253 122.825 50.752C123.316 51.1787 123.561 51.8613 123.561 52.8V57.84C123.561 57.9467 123.508 58 123.401 58H122.057ZM120.153 56.72C120.708 56.72 121.129 56.6133 121.417 56.4C121.716 56.1867 121.865 55.856 121.865 55.408V54.816C121.865 54.752 121.833 54.72 121.769 54.72H120.489C119.913 54.72 119.492 54.8053 119.225 54.976C118.958 55.136 118.825 55.3973 118.825 55.76C118.825 56.4 119.268 56.72 120.153 56.72ZM130.72 58C130.613 58 130.56 57.9467 130.56 57.84V53.392C130.56 52.8907 130.437 52.4853 130.192 52.176C129.947 51.8667 129.584 51.712 129.104 51.712C128.635 51.712 128.272 51.8667 128.016 52.176C127.76 52.4853 127.632 52.8907 127.632 53.392V57.84C127.632 57.9467 127.579 58 127.472 58H126C125.893 58 125.84 57.9467 125.84 57.84V50.448C125.84 50.3413 125.893 50.288 126 50.288H127.472C127.579 50.288 127.632 50.3413 127.632 50.448V51.008H127.648C127.819 50.7627 128.069 50.5547 128.4 50.384C128.741 50.2027 129.168 50.112 129.68 50.112C130.096 50.112 130.464 50.1867 130.784 50.336C131.115 50.4747 131.397 50.672 131.632 50.928C131.867 51.184 132.043 51.488 132.16 51.84C132.288 52.1813 132.352 52.56 132.352 52.976V57.84C132.352 57.9467 132.299 58 132.192 58H130.72ZM139.198 58C139.091 58 139.038 57.9467 139.038 57.84V57.28H139.022C138.84 57.5467 138.568 57.7653 138.206 57.936C137.843 58.096 137.39 58.176 136.846 58.176C136.494 58.176 136.158 58.128 135.838 58.032C135.528 57.936 135.256 57.792 135.022 57.6C134.787 57.408 134.6 57.168 134.462 56.88C134.323 56.5813 134.254 56.2293 134.254 55.824C134.254 54.9813 134.526 54.3627 135.07 53.968C135.624 53.5733 136.382 53.376 137.342 53.376H138.91C138.974 53.376 139.006 53.344 139.006 53.28V52.912C139.006 52.464 138.883 52.1387 138.638 51.936C138.392 51.7333 137.944 51.632 137.294 51.632C136.856 51.632 136.499 51.6853 136.222 51.792C135.944 51.888 135.715 52.0107 135.534 52.16C135.438 52.2347 135.363 52.224 135.31 52.128L134.718 51.072C134.664 50.9867 134.675 50.9173 134.75 50.864C135.059 50.64 135.432 50.4587 135.87 50.32C136.307 50.1813 136.846 50.112 137.486 50.112C138.659 50.112 139.486 50.3253 139.966 50.752C140.456 51.1787 140.702 51.8613 140.702 52.8V57.84C140.702 57.9467 140.648 58 140.542 58H139.198ZM137.294 56.72C137.848 56.72 138.27 56.6133 138.558 56.4C138.856 56.1867 139.006 55.856 139.006 55.408V54.816C139.006 54.752 138.974 54.72 138.91 54.72H137.63C137.054 54.72 136.632 54.8053 136.366 54.976C136.099 55.136 135.966 55.3973 135.966 55.76C135.966 56.4 136.408 56.72 137.294 56.72ZM145.621 61.056C145.077 61.056 144.549 60.9493 144.037 60.736C143.525 60.5333 143.119 60.256 142.821 59.904C142.757 59.8293 142.762 59.7547 142.837 59.68L143.781 58.736C143.855 58.6613 143.935 58.6613 144.021 58.736C144.522 59.216 145.082 59.456 145.701 59.456C146.298 59.456 146.735 59.3013 147.013 58.992C147.29 58.6827 147.429 58.224 147.429 57.616V56.896H147.413C147.231 57.1733 146.975 57.392 146.645 57.552C146.325 57.712 145.914 57.792 145.413 57.792C144.762 57.792 144.213 57.632 143.765 57.312C143.317 56.992 142.991 56.528 142.789 55.92C142.693 55.6213 142.623 55.328 142.581 55.04C142.549 54.7413 142.533 54.3787 142.533 53.952C142.533 53.5253 142.549 53.168 142.581 52.88C142.623 52.592 142.693 52.2987 142.789 52C142.991 51.3813 143.317 50.912 143.765 50.592C144.213 50.272 144.762 50.112 145.413 50.112C145.914 50.112 146.325 50.1973 146.645 50.368C146.975 50.528 147.231 50.7467 147.413 51.024H147.429V50.448C147.429 50.3413 147.482 50.288 147.589 50.288H149.061C149.167 50.288 149.221 50.3413 149.221 50.448V57.52C149.221 58.6293 148.917 59.4933 148.309 60.112C147.711 60.7413 146.815 61.056 145.621 61.056ZM145.877 56.208C146.25 56.208 146.543 56.1227 146.757 55.952C146.981 55.7813 147.146 55.536 147.253 55.216C147.317 55.0347 147.359 54.848 147.381 54.656C147.413 54.4533 147.429 54.2187 147.429 53.952C147.429 53.4507 147.37 53.0293 147.253 52.688C147.146 52.3787 146.981 52.1387 146.757 51.968C146.543 51.7973 146.25 51.712 145.877 51.712C145.183 51.712 144.73 52.0373 144.517 52.688C144.399 53.0293 144.341 53.4507 144.341 53.952C144.341 54.2187 144.351 54.4533 144.373 54.656C144.405 54.848 144.453 55.0347 144.517 55.216C144.73 55.8773 145.183 56.208 145.877 56.208ZM161.159 58C161.052 58 160.999 57.9467 160.999 57.84V53.392C160.999 52.8907 160.876 52.4853 160.631 52.176C160.385 51.8667 160.023 51.712 159.543 51.712C159.073 51.712 158.711 51.8667 158.455 52.176C158.199 52.4853 158.071 52.8907 158.071 53.392V57.84C158.071 57.9467 158.017 58 157.911 58H156.439C156.332 58 156.279 57.9467 156.279 57.84V53.392C156.279 52.8907 156.156 52.4853 155.911 52.176C155.665 51.8667 155.303 51.712 154.823 51.712C154.353 51.712 153.991 51.8667 153.735 52.176C153.479 52.4853 153.351 52.8907 153.351 53.392V57.84C153.351 57.9467 153.297 58 153.191 58H151.719C151.612 58 151.559 57.9467 151.559 57.84V50.448C151.559 50.3413 151.612 50.288 151.719 50.288H153.191C153.297 50.288 153.351 50.3413 153.351 50.448V51.008H153.367C153.537 50.7627 153.788 50.5547 154.119 50.384C154.46 50.2027 154.887 50.112 155.399 50.112C155.857 50.112 156.263 50.2027 156.615 50.384C156.977 50.5547 157.276 50.8053 157.511 51.136H157.527C157.825 50.816 158.172 50.5653 158.567 50.384C158.961 50.2027 159.436 50.112 159.991 50.112C160.439 50.112 160.833 50.1867 161.175 50.336C161.527 50.4747 161.82 50.672 162.055 50.928C162.3 51.184 162.481 51.488 162.599 51.84C162.727 52.1813 162.791 52.56 162.791 52.976V57.84C162.791 57.9467 162.737 58 162.631 58H161.159ZM168.115 58.176C167.294 58.176 166.606 57.9893 166.051 57.616C165.496 57.232 165.112 56.704 164.899 56.032C164.814 55.7867 164.744 55.5147 164.691 55.216C164.648 54.9067 164.627 54.5493 164.627 54.144C164.627 53.7387 164.648 53.3813 164.691 53.072C164.734 52.7627 164.798 52.4853 164.883 52.24C165.096 51.568 165.48 51.0453 166.035 50.672C166.6 50.2987 167.267 50.112 168.035 50.112C168.835 50.112 169.507 50.304 170.051 50.688C170.606 51.0613 170.99 51.5787 171.203 52.24C171.246 52.3787 171.283 52.5173 171.315 52.656C171.347 52.7947 171.374 52.9547 171.395 53.136C171.416 53.3173 171.432 53.5253 171.443 53.76C171.454 53.984 171.459 54.2507 171.459 54.56C171.459 54.6667 171.4 54.72 171.283 54.72H166.531C166.467 54.72 166.435 54.752 166.435 54.816C166.435 54.9333 166.446 55.04 166.467 55.136C166.488 55.232 166.515 55.3227 166.547 55.408C166.814 56.1867 167.39 56.576 168.275 56.576C168.712 56.576 169.075 56.5067 169.363 56.368C169.651 56.2293 169.891 56.0533 170.083 55.84C170.168 55.7547 170.248 55.744 170.323 55.808L171.267 56.64C171.342 56.704 171.347 56.7787 171.283 56.864C170.952 57.248 170.52 57.5627 169.987 57.808C169.454 58.0533 168.83 58.176 168.115 58.176ZM169.651 53.28C169.651 53.0347 169.619 52.816 169.555 52.624C169.448 52.3147 169.262 52.0747 168.995 51.904C168.728 51.7227 168.414 51.632 168.051 51.632C167.678 51.632 167.358 51.7227 167.091 51.904C166.824 52.0747 166.638 52.3147 166.531 52.624C166.467 52.816 166.435 53.0347 166.435 53.28C166.435 53.344 166.467 53.376 166.531 53.376H169.555C169.619 53.376 169.651 53.344 169.651 53.28ZM178.267 58C178.16 58 178.107 57.9467 178.107 57.84V53.392C178.107 52.8907 177.984 52.4853 177.739 52.176C177.493 51.8667 177.131 51.712 176.651 51.712C176.181 51.712 175.819 51.8667 175.563 52.176C175.307 52.4853 175.179 52.8907 175.179 53.392V57.84C175.179 57.9467 175.125 58 175.019 58H173.547C173.44 58 173.387 57.9467 173.387 57.84V50.448C173.387 50.3413 173.44 50.288 173.547 50.288H175.019C175.125 50.288 175.179 50.3413 175.179 50.448V51.008H175.195C175.365 50.7627 175.616 50.5547 175.947 50.384C176.288 50.2027 176.715 50.112 177.227 50.112C177.643 50.112 178.011 50.1867 178.331 50.336C178.661 50.4747 178.944 50.672 179.179 50.928C179.413 51.184 179.589 51.488 179.707 51.84C179.835 52.1813 179.899 52.56 179.899 52.976V57.84C179.899 57.9467 179.845 58 179.739 58H178.267ZM184.408 58.096C183.63 58.096 183.075 57.9093 182.744 57.536C182.424 57.1627 182.264 56.5973 182.264 55.84V51.776C182.264 51.712 182.232 51.68 182.168 51.68H181.656C181.55 51.68 181.496 51.6267 181.496 51.52V50.448C181.496 50.3413 181.55 50.288 181.656 50.288H182.168C182.232 50.288 182.264 50.256 182.264 50.192V48.08C182.264 47.9733 182.318 47.92 182.424 47.92H183.896C184.003 47.92 184.056 47.9733 184.056 48.08V50.192C184.056 50.256 184.088 50.288 184.152 50.288H185.176C185.283 50.288 185.336 50.3413 185.336 50.448V51.52C185.336 51.6267 185.283 51.68 185.176 51.68H184.152C184.088 51.68 184.056 51.712 184.056 51.776V55.776C184.056 56.0533 184.115 56.2453 184.232 56.352C184.35 56.448 184.531 56.496 184.776 56.496H185.176C185.283 56.496 185.336 56.5493 185.336 56.656V57.936C185.336 58.0427 185.283 58.096 185.176 58.096H184.408Z" fill="black"/>
</svg>
