<svg width="497" height="189" viewBox="0 0 497 189" fill="none" xmlns="http://www.w3.org/2000/svg">
<path d="M23 169.1C21.78 169.1 20.64 168.96 19.58 168.68C18.54 168.4 17.64 167.99 16.88 167.45C16.12 166.91 15.52 166.24 15.08 165.44C14.66 164.62 14.45 163.67 14.45 162.59C14.45 161.37 14.72 160.3 15.26 159.38C15.82 158.44 16.59 157.64 17.57 156.98C18.57 156.32 19.73 155.79 21.05 155.39C22.37 154.97 23.8 154.67 25.34 154.49L25.7 157.91C24.78 158.01 23.84 158.18 22.88 158.42C21.92 158.64 21.03 158.94 20.21 159.32C19.39 159.7 18.73 160.16 18.23 160.7C17.73 161.24 17.48 161.87 17.48 162.59C17.48 163.29 17.73 163.87 18.23 164.33C18.73 164.79 19.4 165.13 20.24 165.35C21.08 165.55 22 165.65 23 165.65C23.76 165.65 24.46 165.6 25.1 165.5C25.76 165.4 26.37 165.26 26.93 165.08L27.83 168.38C27.09 168.62 26.3 168.8 25.46 168.92C24.64 169.04 23.82 169.1 23 169.1ZM31.13 170C29.73 170 28.59 169.79 27.71 169.37C26.83 168.93 26.18 168.27 25.76 167.39C25.34 166.51 25.13 165.4 25.13 164.06V153.68H28.16V164.06C28.16 164.74 28.23 165.26 28.37 165.62C28.51 165.98 28.79 166.23 29.21 166.37C29.65 166.49 30.29 166.55 31.13 166.55H32.36V170H31.13ZM32.36 170V166.55C32.58 166.55 32.73 166.71 32.81 167.03C32.91 167.33 32.96 167.74 32.96 168.26C32.96 168.78 32.91 169.2 32.81 169.52C32.73 169.84 32.58 170 32.36 170ZM24.02 150.41C23.5 150.41 23.06 150.24 22.7 149.9C22.36 149.54 22.19 149.1 22.19 148.58C22.19 148.04 22.36 147.6 22.7 147.26C23.06 146.92 23.5 146.75 24.02 146.75C24.54 146.75 24.97 146.92 25.31 147.26C25.67 147.6 25.85 148.04 25.85 148.58C25.85 149.1 25.67 149.54 25.31 149.9C24.97 150.24 24.54 150.41 24.02 150.41ZM19.76 150.41C19.24 150.41 18.8 150.24 18.44 149.9C18.1 149.54 17.93 149.1 17.93 148.58C17.93 148.04 18.1 147.6 18.44 147.26C18.8 146.92 19.24 146.75 19.76 146.75C20.28 146.75 20.71 146.92 21.05 147.26C21.41 147.6 21.59 148.04 21.59 148.58C21.59 149.1 21.41 149.54 21.05 149.9C20.71 150.24 20.28 150.41 19.76 150.41ZM36.5516 155.54H39.5816V170H32.3516V166.55H36.5516V155.54ZM32.3516 170C32.1316 170 31.9816 169.84 31.9016 169.52C31.8016 169.2 31.7516 168.77 31.7516 168.23C31.7516 167.71 31.8016 167.3 31.9016 167C31.9816 166.7 32.1316 166.55 32.3516 166.55V170ZM39.0416 177.32C38.5216 177.32 38.0816 177.14 37.7216 176.78C37.3816 176.42 37.2116 175.99 37.2116 175.49C37.2116 174.95 37.3816 174.51 37.7216 174.17C38.0816 173.83 38.5216 173.66 39.0416 173.66C39.5616 173.66 39.9916 173.83 40.3316 174.17C40.6916 174.51 40.8716 174.95 40.8716 175.49C40.8716 175.99 40.6916 176.42 40.3316 176.78C39.9916 177.14 39.5616 177.32 39.0416 177.32ZM34.7816 177.32C34.2616 177.32 33.8216 177.14 33.4616 176.78C33.1216 176.42 32.9516 175.99 32.9516 175.49C32.9516 174.95 33.1216 174.51 33.4616 174.17C33.8216 173.83 34.2616 173.66 34.7816 173.66C35.3016 173.66 35.7316 173.83 36.0716 174.17C36.4316 174.51 36.6116 174.95 36.6116 175.49C36.6116 175.99 36.4316 176.42 36.0716 176.78C35.7316 177.14 35.3016 177.32 34.7816 177.32ZM80.4821 170V166.55C80.7021 166.55 80.8521 166.71 80.9321 167.03C81.0321 167.33 81.0821 167.74 81.0821 168.26C81.0821 168.78 81.0321 169.2 80.9321 169.52C80.8521 169.84 80.7021 170 80.4821 170ZM79.2521 170C77.8521 170 76.7121 169.79 75.8321 169.37C74.9521 168.93 74.3021 168.27 73.8821 167.39C73.4621 166.51 73.2521 165.4 73.2521 164.06H76.2821C76.2821 164.74 76.3521 165.26 76.4921 165.62C76.6321 165.98 76.9121 166.23 77.3321 166.37C77.7721 166.49 78.4121 166.55 79.2521 166.55H80.4821V170H79.2521ZM70.4321 170C69.3321 170 68.3721 169.86 67.5521 169.58C66.7521 169.3 66.0721 168.9 65.5121 168.38C64.9721 167.84 64.5421 167.2 64.2221 166.46L67.0121 165.08C67.1521 165.38 67.3621 165.64 67.6421 165.86C67.9221 166.08 68.2921 166.25 68.7521 166.37C69.2121 166.49 69.7721 166.55 70.4321 166.55C71.2321 166.55 71.8321 166.48 72.2321 166.34C72.6321 166.2 72.9021 165.95 73.0421 165.59C73.1821 165.23 73.2521 164.72 73.2521 164.06V155.54H76.2821V164.06C76.2821 166.02 75.8121 167.5 74.8721 168.5C73.9321 169.5 72.4521 170 70.4321 170ZM53.0921 161.78C52.0521 161.78 51.0321 161.71 50.0321 161.57C49.0321 161.41 48.0621 161.19 47.1221 160.91V157.31C47.9821 157.63 48.9021 157.88 49.8821 158.06C50.8821 158.24 51.9521 158.33 53.0921 158.33C54.2321 158.33 55.2921 158.24 56.2721 158.06C57.2721 157.88 58.2021 157.63 59.0621 157.31V160.91C58.1421 161.19 57.1821 161.41 56.1821 161.57C55.1821 161.71 54.1521 161.78 53.0921 161.78ZM62.4821 170C61.1421 170 60.0321 169.78 59.1521 169.34C58.2921 168.9 57.6521 168.24 57.2321 167.36C56.8321 166.46 56.6321 165.36 56.6321 164.06V155.54H59.6621V164.06C59.6621 164.72 59.7321 165.23 59.8721 165.59C60.0121 165.95 60.2821 166.2 60.6821 166.34C61.1021 166.48 61.7021 166.55 62.4821 166.55V170ZM62.4821 170V166.55C63.2821 166.55 63.8821 166.48 64.2821 166.34C64.6821 166.2 64.9521 165.95 65.0921 165.59C65.2321 165.23 65.3021 164.72 65.3021 164.06V157.01H68.3321V164.06C68.3321 166.02 67.8621 167.5 66.9221 168.5C65.9821 169.5 64.5021 170 62.4821 170ZM43.1621 174.65C44.1221 174.67 44.8921 174.57 45.4721 174.35C46.0521 174.15 46.4721 173.8 46.7321 173.3C46.9921 172.8 47.1221 172.16 47.1221 171.38V155.54H50.1521V171.38C50.1521 172.76 49.8921 173.94 49.3721 174.92C48.8521 175.9 48.1121 176.65 47.1521 177.17C46.2121 177.69 45.0721 177.96 43.7321 177.98L43.1621 174.65ZM66.8321 144.65C67.3521 144.65 67.7821 144.83 68.1221 145.19C68.4821 145.53 68.6621 145.96 68.6621 146.48C68.6621 147.02 68.4821 147.46 68.1221 147.8C67.7821 148.14 67.3521 148.31 66.8321 148.31C66.3321 148.31 65.9021 148.14 65.5421 147.8C65.1821 147.46 65.0021 147.02 65.0021 146.48C65.0021 145.96 65.1821 145.53 65.5421 145.19C65.9021 144.83 66.3321 144.65 66.8321 144.65ZM68.9621 148.34C69.4821 148.34 69.9121 148.52 70.2521 148.88C70.6121 149.22 70.7921 149.65 70.7921 150.17C70.7921 150.71 70.6121 151.15 70.2521 151.49C69.9121 151.83 69.4821 152 68.9621 152C68.4421 152 68.0021 151.83 67.6421 151.49C67.3021 151.15 67.1321 150.71 67.1321 150.17C67.1321 149.65 67.3021 149.22 67.6421 148.88C68.0021 148.52 68.4421 148.34 68.9621 148.34ZM64.7021 148.34C65.2221 148.34 65.6521 148.52 65.9921 148.88C66.3521 149.22 66.5321 149.65 66.5321 150.17C66.5321 150.71 66.3521 151.15 65.9921 151.49C65.6521 151.83 65.2221 152 64.7021 152C64.1821 152 63.7421 151.83 63.3821 151.49C63.0421 151.15 62.8721 150.71 62.8721 150.17C62.8721 149.65 63.0421 149.22 63.3821 148.88C63.7421 148.52 64.1821 148.34 64.7021 148.34ZM80.4863 170V166.55H82.0163C82.8763 166.55 83.5163 166.49 83.9363 166.37C84.3563 166.23 84.6363 165.98 84.7763 165.62C84.9163 165.26 84.9863 164.74 84.9863 164.06V155.54H88.0163V164.06C88.0163 165.4 87.8063 166.51 87.3863 167.39C86.9663 168.27 86.3163 168.93 85.4363 169.37C84.5563 169.79 83.4163 170 82.0163 170H80.4863ZM90.9863 170C89.5863 170 88.4463 169.79 87.5663 169.37C86.6863 168.93 86.0363 168.27 85.6163 167.39C85.1963 166.51 84.9863 165.4 84.9863 164.06H88.0163C88.0163 164.74 88.0863 165.26 88.2263 165.62C88.3663 165.98 88.6463 166.23 89.0663 166.37C89.5063 166.49 90.1463 166.55 90.9863 166.55H92.2163V170H90.9863ZM92.2163 170V166.55C92.4363 166.55 92.5863 166.71 92.6663 167.03C92.7663 167.33 92.8163 167.74 92.8163 168.26C92.8163 168.78 92.7663 169.2 92.6663 169.52C92.5863 169.84 92.4363 170 92.2163 170ZM80.4863 170C80.2663 170 80.1163 169.84 80.0363 169.52C79.9363 169.2 79.8863 168.77 79.8863 168.23C79.8863 167.71 79.9363 167.3 80.0363 167C80.1163 166.7 80.2663 166.55 80.4863 166.55V170ZM86.5163 178.04C85.9563 178.04 85.4763 177.84 85.0763 177.44C84.6963 177.06 84.5063 176.59 84.5063 176.03C84.5063 175.45 84.6963 174.97 85.0763 174.59C85.4763 174.21 85.9563 174.02 86.5163 174.02C87.0963 174.02 87.5763 174.21 87.9563 174.59C88.3363 174.97 88.5263 175.45 88.5263 176.03C88.5263 176.59 88.3363 177.06 87.9563 177.44C87.5763 177.84 87.0963 178.04 86.5163 178.04ZM92.2051 170V166.55H96.1051V145.4H99.1351V170H92.2051ZM92.2051 170C91.9851 170 91.8351 169.84 91.7551 169.52C91.6551 169.2 91.6051 168.77 91.6051 168.23C91.6051 167.71 91.6551 167.3 91.7551 167C91.8351 166.7 91.9851 166.55 92.2051 166.55V170ZM103.336 170V145.4H106.366V170H103.336ZM129.834 170C129.814 167.86 129.434 165.95 128.694 164.27C127.954 162.59 126.894 161.19 125.514 160.07C124.154 158.95 122.514 158.17 120.594 157.73L121.284 154.37C123.644 154.91 125.684 155.91 127.404 157.37C129.124 158.81 130.454 160.61 131.394 162.77C132.354 164.91 132.844 167.32 132.864 170H129.834ZM118.044 170V166.55H132.234V170H118.044ZM133.455 174.65C134.415 174.67 135.185 174.57 135.765 174.35C136.345 174.15 136.765 173.8 137.025 173.3C137.285 172.8 137.415 172.16 137.415 171.38V155.54H140.445V171.38C140.445 172.76 140.185 173.94 139.665 174.92C139.145 175.9 138.405 176.65 137.445 177.17C136.505 177.69 135.365 177.96 134.025 177.98L133.455 174.65ZM144.644 170V145.4H147.674V170H144.644ZM164.016 170V166.55H168.396V170H164.016ZM168.396 170V166.55C168.616 166.55 168.766 166.71 168.846 167.03C168.946 167.33 168.996 167.74 168.996 168.26C168.996 168.78 168.946 169.2 168.846 169.52C168.766 169.84 168.616 170 168.396 170ZM152.466 177.98V174.53H158.316C159.556 174.53 160.446 174.28 160.986 173.78C161.526 173.28 161.796 172.48 161.796 171.38V156.17H164.826V171.38C164.826 172.78 164.556 173.97 164.016 174.95C163.496 175.95 162.746 176.7 161.766 177.2C160.806 177.72 159.656 177.98 158.316 177.98H152.466ZM158.976 170C157.416 170 156.056 169.66 154.896 168.98C153.756 168.3 152.866 167.39 152.226 166.25C151.586 165.09 151.266 163.82 151.266 162.44C151.266 161.32 151.466 160.29 151.866 159.35C152.266 158.39 152.826 157.56 153.546 156.86C154.266 156.14 155.096 155.58 156.036 155.18C156.976 154.78 157.986 154.58 159.066 154.58C160.126 154.58 161.156 154.75 162.156 155.09C163.156 155.41 164.046 155.77 164.826 156.17L163.476 159.26C161.836 158.44 160.366 158.03 159.066 158.03C158.166 158.03 157.356 158.23 156.636 158.63C155.916 159.01 155.346 159.53 154.926 160.19C154.506 160.85 154.296 161.6 154.296 162.44C154.296 163.24 154.486 163.95 154.866 164.57C155.266 165.19 155.816 165.68 156.516 166.04C157.216 166.38 158.036 166.55 158.976 166.55H163.296V170H158.976ZM190.576 170C189.276 170 188.206 169.79 187.366 169.37C186.526 168.93 185.896 168.27 185.476 167.39C185.076 166.51 184.876 165.4 184.876 164.06V163.34H187.606V164.06C187.606 164.74 187.676 165.26 187.816 165.62C187.956 165.98 188.236 166.23 188.656 166.37C189.096 166.49 189.736 166.55 190.576 166.55H191.806V170H190.576ZM168.406 170C168.186 170 168.036 169.84 167.956 169.52C167.856 169.2 167.806 168.77 167.806 168.23C167.806 167.71 167.856 167.3 167.956 167C168.036 166.7 168.186 166.55 168.406 166.55V170ZM168.406 170V166.55C169.366 166.55 170.166 166.36 170.806 165.98C171.446 165.6 172.006 165.08 172.486 164.42C172.986 163.76 173.466 163.02 173.926 162.2C174.386 161.4 174.876 160.61 175.396 159.83C175.916 159.05 176.486 158.34 177.106 157.7C177.726 157.06 178.416 156.55 179.176 156.17C179.936 155.77 180.796 155.57 181.756 155.57C182.816 155.57 183.716 155.8 184.456 156.26C185.216 156.7 185.826 157.3 186.286 158.06C186.746 158.8 187.076 159.63 187.276 160.55C187.496 161.47 187.606 162.4 187.606 163.34C187.606 164.36 187.466 165.52 187.186 166.82C186.906 168.1 186.446 169.3 185.806 170.42L183.166 168.71C183.626 167.91 183.976 167.05 184.216 166.13C184.456 165.21 184.576 164.28 184.576 163.34C184.576 161.86 184.336 160.77 183.856 160.07C183.376 159.37 182.676 159.02 181.756 159.02C181.176 159.02 180.626 159.17 180.106 159.47C179.606 159.75 179.076 160.25 178.516 160.97C177.956 161.67 177.296 162.66 176.536 163.94C175.736 165.3 174.946 166.43 174.166 167.33C173.406 168.23 172.566 168.9 171.646 169.34C170.746 169.78 169.666 170 168.406 170ZM185.656 166.97L185.806 170.42C184.006 170.52 182.446 170.5 181.126 170.36C179.806 170.24 178.646 170.01 177.646 169.67C176.666 169.33 175.786 168.9 175.006 168.38C174.246 167.84 173.536 167.23 172.876 166.55L175.066 164.15C175.806 164.91 176.636 165.52 177.556 165.98C178.496 166.42 179.616 166.72 180.916 166.88C182.236 167.04 183.816 167.07 185.656 166.97ZM191.806 170V166.55C192.026 166.55 192.176 166.71 192.256 167.03C192.356 167.33 192.406 167.74 192.406 168.26C192.406 168.78 192.356 169.2 192.256 169.52C192.176 169.84 192.026 170 191.806 170ZM191.814 170V166.55H195.714V145.4H198.744V170H191.814ZM191.814 170C191.594 170 191.444 169.84 191.364 169.52C191.264 169.2 191.214 168.77 191.214 168.23C191.214 167.71 191.264 167.3 191.364 167C191.444 166.7 191.594 166.55 191.814 166.55V170ZM202.945 170V145.4H205.975V170H202.945ZM223.833 153.68H226.443C230.343 156.94 232.293 160.17 232.293 163.37C232.293 164.67 231.993 165.82 231.393 166.82C230.793 167.82 229.953 168.6 228.873 169.16C227.813 169.72 226.563 170 225.123 170C223.703 170 222.453 169.72 221.373 169.16C220.293 168.6 219.453 167.82 218.853 166.82C218.253 165.82 217.953 164.68 217.953 163.4C217.953 160.2 219.913 156.96 223.833 153.68ZM224.853 157.13C223.513 158.35 222.533 159.48 221.913 160.52C221.293 161.54 220.983 162.5 220.983 163.4C220.983 164.04 221.143 164.6 221.463 165.08C221.803 165.54 222.283 165.9 222.903 166.16C223.523 166.42 224.263 166.55 225.123 166.55C226.003 166.55 226.743 166.42 227.343 166.16C227.963 165.9 228.433 165.53 228.753 165.05C229.093 164.57 229.263 164.01 229.263 163.37C229.263 162.49 228.953 161.53 228.333 160.49C227.713 159.45 226.743 158.33 225.423 157.13H224.853ZM227.253 150.02C226.733 150.02 226.293 149.85 225.933 149.51C225.593 149.15 225.423 148.71 225.423 148.19C225.423 147.65 225.593 147.21 225.933 146.87C226.293 146.53 226.733 146.36 227.253 146.36C227.773 146.36 228.203 146.53 228.543 146.87C228.903 147.21 229.083 147.65 229.083 148.19C229.083 148.71 228.903 149.15 228.543 149.51C228.203 149.85 227.773 150.02 227.253 150.02ZM222.993 150.02C222.473 150.02 222.033 149.85 221.673 149.51C221.333 149.15 221.163 148.71 221.163 148.19C221.163 147.65 221.333 147.21 221.673 146.87C222.033 146.53 222.473 146.36 222.993 146.36C223.513 146.36 223.943 146.53 224.283 146.87C224.643 147.21 224.823 147.65 224.823 148.19C224.823 148.71 224.643 149.15 224.283 149.51C223.943 149.85 223.513 150.02 222.993 150.02ZM233.797 174.65C234.757 174.67 235.527 174.57 236.107 174.35C236.687 174.15 237.107 173.8 237.367 173.3C237.627 172.8 237.757 172.16 237.757 171.38V155.54H240.787V171.38C240.787 172.76 240.527 173.94 240.007 174.92C239.487 175.9 238.747 176.65 237.787 177.17C236.847 177.69 235.707 177.96 234.367 177.98L233.797 174.65ZM244.986 170V145.4H248.016V170H244.986ZM263.398 170C263.378 167.86 262.998 165.95 262.258 164.27C261.518 162.59 260.458 161.19 259.078 160.07C257.718 158.95 256.078 158.17 254.158 157.73L254.848 154.37C257.208 154.91 259.248 155.91 260.968 157.37C262.688 158.81 264.018 160.61 264.958 162.77C265.918 164.91 266.408 167.32 266.428 170H263.398ZM251.608 170V166.55H265.798V170H251.608ZM270.328 170V145.4H273.358V170H270.328ZM272.818 177.65C271.758 177.65 270.888 177.44 270.208 177.02C269.548 176.62 269.218 176.02 269.218 175.22C269.218 174.66 269.378 174.18 269.698 173.78C270.018 173.38 270.438 173.07 270.958 172.85C271.478 172.63 272.038 172.52 272.638 172.52C272.998 172.52 273.348 172.56 273.688 172.64C274.048 172.72 274.388 172.84 274.708 173L273.928 174.71C273.768 174.67 273.578 174.64 273.358 174.62C273.158 174.6 272.978 174.59 272.818 174.59C272.258 174.59 271.818 174.67 271.498 174.83C271.178 174.99 271.018 175.17 271.018 175.37C271.018 175.57 271.178 175.75 271.498 175.91C271.818 176.07 272.258 176.15 272.818 176.15V177.65ZM268.678 178.25V176.15H275.038V178.25H268.678Z" fill="#091C2B"/>
<path d="M497 87.4735C497 92.5268 497 97.58 497 102.633C496.292 107.564 495.765 112.521 494.514 117.361C487.478 144.585 471.654 164.964 447.143 178.619C445.685 179.43 444.631 179.361 443.305 178.427C439.191 175.508 434.997 172.712 430.85 169.841C426.454 166.794 422.111 163.673 417.214 161.421C412.647 159.324 408.112 158.987 403.567 161.383C401.065 162.701 398.542 163.987 396.115 165.439C387.2 170.785 378.62 176.66 369.901 182.317C368.746 183.064 367.788 183.24 366.505 182.637C363.392 181.169 360.171 179.926 357.228 178.123C356.153 177.466 354.231 177.151 354.258 176.004C354.279 174.878 356.179 174.531 357.297 173.944C375.006 164.638 392.224 154.51 408.575 142.958C418.209 136.154 427.114 128.481 434.055 118.812C439.415 111.342 442.496 103.167 441.214 93.7167C439.654 82.2282 427.375 73.365 416 75.5474C409.443 76.8067 403.961 80.0724 399.048 84.4C393.507 89.2824 388.717 94.944 383.202 99.8639C373.867 108.204 364.259 116.16 352.911 121.683C347.323 124.404 341.622 126.827 335.65 128.615C332.792 129.468 331.616 131.549 332.398 133.887C333.111 136.021 335.224 136.923 337.88 136.138C347.961 133.156 357.473 128.881 366.292 123.156C378.694 115.109 389.6 105.28 399.761 94.5812C403.514 90.6271 407.686 87.2547 412.599 84.7842C422.803 79.6509 434.944 87.4148 433.629 99.517C433.139 104.021 431.558 108.119 429.147 111.907C423.468 120.835 415.766 127.83 407.351 133.993C388.498 147.798 368.379 159.526 347.541 170.044C346.231 170.705 345.343 170.508 344.241 169.628C339.477 165.807 335.017 161.671 331.062 157.002C313.306 136.037 305.827 111.785 308.542 84.496C310.219 67.6554 316.212 52.2929 326.389 38.7606C344.315 14.9191 368.304 2.06983 397.994 0.180863C410.513 -0.614211 422.797 1.21073 434.55 5.68235C464.239 16.9681 483.842 37.9015 493.386 68.2637C495.35 74.5229 496.297 80.9795 497 87.4735ZM403.939 39.1235C394.098 39.3049 385.496 41.5247 377.417 45.7722C367.187 51.1509 358.894 58.8456 351.251 67.3993C345.38 73.968 341.276 82.1321 333.494 86.9986C331.93 87.9804 331.898 90.3123 332.898 91.8598C333.91 93.4179 335.82 94.0476 337.598 93.3325C338.333 93.039 339.035 92.6335 339.701 92.1906C343.065 89.9495 345.859 87.1214 348.275 83.8877C355.296 74.4909 362.726 65.4729 372.227 58.4347C382.888 50.532 394.577 45.8202 408.134 47.421C419.433 48.7551 428.753 53.9417 436.333 62.3567C443.423 70.2327 448.021 79.5228 451.289 89.5012C453.28 95.579 454.866 101.796 456.756 107.911C457.464 110.2 458.448 112.425 460.173 114.186C461.754 115.803 464.106 115.947 465.666 114.613C467.231 113.268 467.502 111.128 466.177 109.287C465 107.655 464.261 105.851 463.718 103.951C462.797 100.755 461.924 97.548 461.051 94.341C457.272 80.4513 451.635 67.5273 441.863 56.6951C431.495 45.2279 418.555 39.5824 403.939 39.1235ZM338.876 158.416C339.578 158.438 340.499 158.102 341.425 157.76C354.966 152.776 367.884 146.512 380.094 138.806C395.503 129.084 409.315 117.548 420.2 102.756C420.674 102.116 421.163 101.465 421.509 100.75C422.755 98.1723 420.924 95.3656 418.06 95.3175C416.128 95.2855 415.042 96.5235 414.047 97.8735C409.427 104.133 404.237 109.885 398.473 115.098C381.414 130.53 361.726 141.555 340.361 149.735C339.046 150.236 337.651 150.572 336.459 151.368C334.91 152.403 334.288 154.137 334.9 155.898C335.496 157.616 336.768 158.427 338.876 158.416ZM337.827 114.362C338.673 114.415 339.552 114.106 340.393 113.738C351.421 108.951 361.635 102.964 369.859 93.9568C374.542 88.8289 378.753 83.2687 383.932 78.5837C391.5 71.7375 399.878 66.4868 410.151 64.8486C411.013 64.7099 411.827 64.4538 412.541 63.9415C413.877 62.9757 414.366 61.092 413.728 59.4592C413.131 57.9384 411.481 56.8499 409.965 57.0473C404.062 57.805 398.462 59.5552 393.198 62.3513C384.214 67.1271 376.661 73.6638 370.338 81.5665C362.556 91.2835 353.374 99.1382 342.053 104.426C340.047 105.365 337.965 106.118 335.991 107.094C334.224 107.964 333.388 109.853 333.846 111.55C334.298 113.236 335.874 114.378 337.827 114.362ZM455.952 168.032C457.708 168.016 458.778 167.317 459.417 165.962C460.588 163.475 459.598 161.325 456.671 160.167C446.712 156.234 438.339 150.519 433.746 140.322C432.666 137.926 430.329 137.238 428.386 138.31C426.369 139.425 425.837 141.501 426.928 143.87C431.899 154.639 440.25 161.8 450.943 166.431C452.62 167.157 454.313 167.968 455.952 168.032ZM446.531 120.072C443.524 120.04 441.682 122.457 442.305 125.578C443.369 130.904 445.999 135.29 450.113 138.806C453.514 141.715 457.362 143.865 461.519 145.429C463.931 146.336 465.932 145.487 466.741 143.449C467.593 141.304 466.688 139.297 464.372 138.214C463.036 137.59 461.679 137.014 460.359 136.368C456.83 134.639 453.706 132.425 451.747 128.871C450.667 126.907 450.182 124.746 449.671 122.59C449.277 120.957 448.266 120.056 446.531 120.072Z" fill="#091C2B"/>
<path d="M394.338 188.995C389.739 188.337 385.108 187.856 380.6 186.68C380.021 186.53 379.154 186.592 379.016 185.986C378.872 185.339 379.728 185.116 380.212 184.805C388.213 179.705 396.188 174.573 404.439 169.85C408.67 167.427 412.445 167.344 416.623 169.84C423.008 173.651 429.032 177.97 435.204 182.082C436.443 182.905 436.15 183.361 434.917 183.801C429.255 185.805 423.45 187.25 417.495 188.14C416.788 188.244 416.129 188.218 415.539 187.876C409.303 184.251 403.375 185.111 397.65 189C396.549 188.995 395.443 188.995 394.338 188.995Z" fill="#B2DCBC"/>
<path d="M46.7988 97V85.5H61.3988V97H46.7988ZM61.3988 97V85.5C62.1322 85.5 62.6322 86.0333 62.8988 87.1C63.2322 88.1 63.3988 89.4667 63.3988 91.2C63.3988 92.9333 63.2322 94.3333 62.8988 95.4C62.6322 96.4667 62.1322 97 61.3988 97ZM8.29883 123.6V112.1H27.7988C31.9322 112.1 34.8988 111.267 36.6988 109.6C38.4988 107.933 39.3988 105.267 39.3988 101.6V50.9H49.4988V101.6C49.4988 106.267 48.5988 110.233 46.7988 113.5C45.0655 116.833 42.5655 119.333 39.2988 121C36.0988 122.733 32.2655 123.6 27.7988 123.6H8.29883ZM29.9988 97C24.7988 97 20.2655 95.8667 16.3988 93.6C12.5988 91.3333 9.63216 88.3 7.49883 84.5C5.3655 80.6333 4.29883 76.4 4.29883 71.8C4.29883 68.0667 4.9655 64.6333 6.29883 61.5C7.63216 58.3 9.49883 55.5333 11.8988 53.2C14.2988 50.8 17.0655 48.9333 20.1988 47.6C23.3322 46.2667 26.6988 45.6 30.2988 45.6C33.8322 45.6 37.2655 46.1667 40.5988 47.3C43.9322 48.3667 46.8988 49.5667 49.4988 50.9L44.9988 61.2C39.5322 58.4667 34.6322 57.1 30.2988 57.1C27.2988 57.1 24.5988 57.7667 22.1988 59.1C19.7988 60.3667 17.8988 62.1 16.4988 64.3C15.0988 66.5 14.3988 69 14.3988 71.8C14.3988 74.4667 15.0322 76.8333 16.2988 78.9C17.6322 80.9667 19.4655 82.6 21.7988 83.8C24.1322 84.9333 26.8655 85.5 29.9988 85.5H44.3988V97H29.9988ZM61.4316 97V85.5H66.5316C69.3983 85.5 71.5316 85.3 72.9316 84.9C74.3316 84.4333 75.265 83.6 75.7316 82.4C76.1983 81.2 76.4316 79.4667 76.4316 77.2V48.8H86.5316V77.2C86.5316 81.6667 85.8316 85.3667 84.4316 88.3C83.0316 91.2333 80.865 93.4333 77.9316 94.9C74.9983 96.3 71.1983 97 66.5316 97H61.4316ZM96.4316 97C91.765 97 87.965 96.3 85.0316 94.9C82.0983 93.4333 79.9316 91.2333 78.5316 88.3C77.1316 85.3667 76.4316 81.6667 76.4316 77.2H86.5316C86.5316 79.4667 86.765 81.2 87.2316 82.4C87.6983 83.6 88.6316 84.4333 90.0316 84.9C91.4983 85.3 93.6316 85.5 96.4316 85.5H100.532V97H96.4316ZM100.532 97V85.5C101.265 85.5 101.765 86.0333 102.032 87.1C102.365 88.1 102.532 89.4667 102.532 91.2C102.532 92.9333 102.365 94.3333 102.032 95.4C101.765 96.4667 101.265 97 100.532 97ZM61.4316 97C60.6983 97 60.1983 96.4667 59.9316 95.4C59.5983 94.3333 59.4316 92.9 59.4316 91.1C59.4316 89.3667 59.5983 88 59.9316 87C60.1983 86 60.6983 85.5 61.4316 85.5V97ZM88.6316 36.6C86.8983 36.6 85.4316 36.0333 84.2316 34.9C83.0983 33.7 82.5316 32.2333 82.5316 30.5C82.5316 28.7 83.0983 27.2333 84.2316 26.1C85.4316 24.9667 86.8983 24.4 88.6316 24.4C90.365 24.4 91.7983 24.9667 92.9316 26.1C94.1316 27.2333 94.7316 28.7 94.7316 30.5C94.7316 32.2333 94.1316 33.7 92.9316 34.9C91.7983 36.0333 90.365 36.6 88.6316 36.6ZM74.4316 36.6C72.6983 36.6 71.2316 36.0333 70.0316 34.9C68.8983 33.7 68.3316 32.2333 68.3316 30.5C68.3316 28.7 68.8983 27.2333 70.0316 26.1C71.2316 24.9667 72.6983 24.4 74.4316 24.4C76.165 24.4 77.5983 24.9667 78.7316 26.1C79.9316 27.2333 80.5316 28.7 80.5316 30.5C80.5316 32.2333 79.9316 33.7 78.7316 34.9C77.5983 36.0333 76.165 36.6 74.4316 36.6ZM100.494 97V85.5H105.594C108.461 85.5 110.594 85.3 111.994 84.9C113.394 84.4333 114.327 83.6 114.794 82.4C115.261 81.2 115.494 79.4667 115.494 77.2V48.8H125.594V77.2C125.594 81.6667 124.894 85.3667 123.494 88.3C122.094 91.2333 119.927 93.4333 116.994 94.9C114.061 96.3 110.261 97 105.594 97H100.494ZM135.494 97C130.827 97 127.027 96.3 124.094 94.9C121.161 93.4333 118.994 91.2333 117.594 88.3C116.194 85.3667 115.494 81.6667 115.494 77.2H125.594C125.594 79.4667 125.827 81.2 126.294 82.4C126.761 83.6 127.694 84.4333 129.094 84.9C130.561 85.3 132.694 85.5 135.494 85.5H139.594V97H135.494ZM139.594 97V85.5C140.327 85.5 140.827 86.0333 141.094 87.1C141.427 88.1 141.594 89.4667 141.594 91.2C141.594 92.9333 141.427 94.3333 141.094 95.4C140.827 96.4667 140.327 97 139.594 97ZM100.494 97C99.7608 97 99.2608 96.4667 98.9941 95.4C98.6608 94.3333 98.4941 92.9 98.4941 91.1C98.4941 89.3667 98.6608 88 98.9941 87C99.2608 86 99.7608 85.5 100.494 85.5V97ZM127.694 121.4C125.961 121.4 124.494 120.8 123.294 119.6C122.161 118.4 121.594 116.967 121.594 115.3C121.594 113.5 122.161 112.033 123.294 110.9C124.494 109.767 125.961 109.2 127.694 109.2C129.427 109.2 130.861 109.767 131.994 110.9C133.194 112.033 133.794 113.5 133.794 115.3C133.794 116.967 133.194 118.4 131.994 119.6C130.861 120.8 129.427 121.4 127.694 121.4ZM113.494 121.4C111.761 121.4 110.294 120.8 109.094 119.6C107.961 118.4 107.394 116.967 107.394 115.3C107.394 113.5 107.961 112.033 109.094 110.9C110.294 109.767 111.761 109.2 113.494 109.2C115.227 109.2 116.661 109.767 117.794 110.9C118.994 112.033 119.594 113.5 119.594 115.3C119.594 116.967 118.994 118.4 117.794 119.6C116.661 120.8 115.227 121.4 113.494 121.4ZM139.557 97V85.5H144.657C147.523 85.5 149.657 85.3 151.057 84.9C152.457 84.4333 153.39 83.6 153.857 82.4C154.323 81.2 154.557 79.4667 154.557 77.2V48.8H164.657V77.2C164.657 81.6667 163.957 85.3667 162.557 88.3C161.157 91.2333 158.99 93.4333 156.057 94.9C153.123 96.3 149.323 97 144.657 97H139.557ZM174.557 97C169.89 97 166.09 96.3 163.157 94.9C160.223 93.4333 158.057 91.2333 156.657 88.3C155.257 85.3667 154.557 81.6667 154.557 77.2H164.657C164.657 79.4667 164.89 81.2 165.357 82.4C165.823 83.6 166.757 84.4333 168.157 84.9C169.623 85.3 171.757 85.5 174.557 85.5H178.657V97H174.557ZM178.657 97V85.5C179.39 85.5 179.89 86.0333 180.157 87.1C180.49 88.1 180.657 89.4667 180.657 91.2C180.657 92.9333 180.49 94.3333 180.157 95.4C179.89 96.4667 179.39 97 178.657 97ZM139.557 97C138.823 97 138.323 96.4667 138.057 95.4C137.723 94.3333 137.557 92.9 137.557 91.1C137.557 89.3667 137.723 88 138.057 87C138.323 86 138.823 85.5 139.557 85.5V97ZM159.657 35.4C157.79 35.4 156.19 34.7667 154.857 33.5C153.59 32.1667 152.957 30.5667 152.957 28.7C152.957 26.7667 153.59 25.1667 154.857 23.9C156.19 22.6333 157.79 22 159.657 22C161.59 22 163.19 22.6333 164.457 23.9C165.723 25.1667 166.357 26.7667 166.357 28.7C166.357 30.5667 165.723 32.1667 164.457 33.5C163.19 34.7667 161.59 35.4 159.657 35.4ZM178.619 97V85.5H183.719C186.586 85.5 188.719 85.3 190.119 84.9C191.519 84.4333 192.452 83.6 192.919 82.4C193.386 81.2 193.619 79.4667 193.619 77.2V48.8H203.719V77.2C203.719 81.6667 203.019 85.3667 201.619 88.3C200.219 91.2333 198.052 93.4333 195.119 94.9C192.186 96.3 188.386 97 183.719 97H178.619ZM213.619 97C208.952 97 205.152 96.3 202.219 94.9C199.286 93.4333 197.119 91.2333 195.719 88.3C194.319 85.3667 193.619 81.6667 193.619 77.2H203.719C203.719 79.4667 203.952 81.2 204.419 82.4C204.886 83.6 205.819 84.4333 207.219 84.9C208.686 85.3 210.819 85.5 213.619 85.5H217.719V97H213.619ZM217.719 97V85.5C218.452 85.5 218.952 86.0333 219.219 87.1C219.552 88.1 219.719 89.4667 219.719 91.2C219.719 92.9333 219.552 94.3333 219.219 95.4C218.952 96.4667 218.452 97 217.719 97ZM178.619 97C177.886 97 177.386 96.4667 177.119 95.4C176.786 94.3333 176.619 92.9 176.619 91.1C176.619 89.3667 176.786 88 177.119 87C177.386 86 177.886 85.5 178.619 85.5V97ZM205.819 121.4C204.086 121.4 202.619 120.8 201.419 119.6C200.286 118.4 199.719 116.967 199.719 115.3C199.719 113.5 200.286 112.033 201.419 110.9C202.619 109.767 204.086 109.2 205.819 109.2C207.552 109.2 208.986 109.767 210.119 110.9C211.319 112.033 211.919 113.5 211.919 115.3C211.919 116.967 211.319 118.4 210.119 119.6C208.986 120.8 207.552 121.4 205.819 121.4ZM191.619 121.4C189.886 121.4 188.419 120.8 187.219 119.6C186.086 118.4 185.519 116.967 185.519 115.3C185.519 113.5 186.086 112.033 187.219 110.9C188.419 109.767 189.886 109.2 191.619 109.2C193.352 109.2 194.786 109.767 195.919 110.9C197.119 112.033 197.719 113.5 197.719 115.3C197.719 116.967 197.119 118.4 195.919 119.6C194.786 120.8 193.352 121.4 191.619 121.4ZM217.682 97V85.5C220.882 85.5 223.548 84.8667 225.682 83.6C227.815 82.3333 229.682 80.6 231.282 78.4C232.948 76.2 234.548 73.7333 236.082 71C237.615 68.3333 239.248 65.7 240.982 63.1C242.715 60.5 244.615 58.1333 246.682 56C248.748 53.8667 251.048 52.1667 253.582 50.9C256.115 49.5667 258.982 48.9 262.182 48.9C265.715 48.9 268.715 49.6667 271.182 51.2C273.715 52.6667 275.748 54.6667 277.282 57.2C278.815 59.6667 279.915 62.4333 280.582 65.5C281.315 68.5667 281.682 71.6667 281.682 74.8C281.682 78.2 281.215 82.0667 280.282 86.4C279.348 90.6667 277.815 94.6667 275.682 98.4L266.882 92.7C268.415 90.0333 269.582 87.1667 270.382 84.1C271.182 81.0333 271.582 77.9333 271.582 74.8C271.582 69.8667 270.782 66.2333 269.182 63.9C267.582 61.5667 265.248 60.4 262.182 60.4C260.248 60.4 258.415 60.9 256.682 61.9C255.015 62.8333 253.248 64.5 251.382 66.9C249.515 69.2333 247.315 72.5333 244.782 76.8C242.115 81.3333 239.482 85.1 236.882 88.1C234.348 91.1 231.548 93.3333 228.482 94.8C225.482 96.2667 221.882 97 217.682 97ZM275.182 86.9L275.682 98.4C269.682 98.7333 264.482 98.6667 260.082 98.2C255.682 97.8 251.815 97.0333 248.482 95.9C245.215 94.7667 242.282 93.3333 239.682 91.6C237.148 89.8 234.782 87.7667 232.582 85.5L239.882 77.5C242.348 80.0333 245.115 82.0667 248.182 83.6C251.315 85.0667 255.048 86.0667 259.382 86.6C263.782 87.1333 269.048 87.2333 275.182 86.9ZM217.682 97C216.948 97 216.448 96.4667 216.182 95.4C215.848 94.3333 215.682 92.9 215.682 91.1C215.682 89.3667 215.848 88 216.182 87C216.448 86 216.948 85.5 217.682 85.5V97Z" fill="#B2DCBC"/>
</svg>
